<?xml version="1.0" encoding="utf-8"?>
<!-- Generator: Adobe Illustrator 23.0.1, SVG Export Plug-In . SVG Version: 6.00 Build 0)  -->
<svg version="1.1" id="Layer_2" xmlns="http://www.w3.org/2000/svg" xmlns:xlink="http://www.w3.org/1999/xlink" x="0px" y="0px"
	 viewBox="0 0 100 32" style="enable-background:new 0 0 100 32;" width="100" height="32" xml:space="preserve">
<style type="text/css">
	.st0{fill:#FFFFFF;}
</style>
<g>
	<path class="st0" d="M23.4,31.8v-6.9H11.1L18,18c0.6-0.5,1-1.2,1-2c0-0.8-0.4-1.5-1-2l-7-7.1h12.4V0H3.8c0,0-0.1,0-0.1,0
		C1.6,0-0.1,1.7-0.1,3.9C-0.1,5,0.4,6,1.1,6.7l0,0l9,9.2l-9,9.3l0,0C0.4,25.9,0,26.9,0,27.9c0,2.1,1.7,3.9,3.9,3.9
		c0.1,0,0.3,0,0.4,0H23.4z"/>
	<path class="st0" d="M26.9,7.3l14.6,8.4l-14.5,8.8l0,7.3l22.3-12.5l0,0c1.3-0.7,2.2-2,2.2-3.6c0-1.6-0.9-2.9-2.3-3.6L26.8,0
		L26.9,7.3z"/>
</g>
</svg>
